<svg width="14" height="21" viewBox="0 0 14 21" fill="none" xmlns="http://www.w3.org/2000/svg">
<path d="M11.25 0C12.4905 0 13.5 1.0095 13.5 2.25V18.75C13.5 19.9905 12.4905 21 11.25 21H2.25C1.0095 21 0 19.9905 0 18.75V2.25C0 1.0095 1.0095 0 2.25 0H11.25ZM12 14.25H1.5V18.75C1.5 19.164 1.83675 19.5 2.25 19.5H11.25C11.6632 19.5 12 19.164 12 18.75V14.25ZM6.75 15.7463C7.3725 15.7463 7.87725 16.2502 7.87725 16.8727C7.87725 17.4953 7.3725 18 6.75 18C6.1275 18 5.6235 17.4953 5.6235 16.8727C5.6235 16.2502 6.1275 15.7463 6.75 15.7463ZM11.25 1.5H2.25C1.83675 1.5 1.5 1.83675 1.5 2.25V12.75H12V2.25C12 1.83675 11.6632 1.5 11.25 1.5Z" fill="white"/>
</svg>
