<svg width="25" height="26" viewBox="0 0 25 26" fill="none" xmlns="http://www.w3.org/2000/svg">
<path d="M5.21955 17.9997C5.77155 17.9997 6.21955 18.4527 6.21955 19.0109V24.0671C6.21955 24.6253 5.77155 25.0783 5.21955 25.0783H1.21955C0.667549 25.0783 0.219549 24.6253 0.219549 24.0671V19.0109C0.219549 18.4527 0.667549 17.9997 1.21955 17.9997H5.21955ZM14.2195 13.9997C14.7715 13.9997 15.2195 14.4509 15.2195 15.0068V24.0712C15.2195 24.6271 14.7715 25.0783 14.2195 25.0783H10.2195C9.66755 25.0783 9.21955 24.6271 9.21955 24.0712V15.0068C9.21955 14.4509 9.66755 13.9997 10.2195 13.9997H14.2195ZM23.2195 9.9997C23.7715 9.9997 24.2195 10.45 24.2195 11.0049V24.0731C24.2195 24.628 23.7715 25.0783 23.2195 25.0783H19.2195C18.6675 25.0783 18.2195 24.628 18.2195 24.0731V11.0049C18.2195 10.45 18.6675 9.9997 19.2195 9.9997H23.2195ZM4.21955 19.9997H2.21955V22.9997H4.21955V19.9997ZM13.2195 16.014H11.2195V22.9997H13.2195V16.014ZM22.2195 11.9997H20.2195V22.9997H22.2195V11.9997ZM17.586 0L23.439 1.319C23.978 1.441 24.316 1.976 24.195 2.514L22.876 8.367L20.924 7.928L21.699 4.493L1.015 16.682L0 14.96L20.71 2.755L17.147 1.951L17.586 0Z" fill="white"/>
</svg>
