<svg width="18" height="18" viewBox="0 0 18 18" fill="none" xmlns="http://www.w3.org/2000/svg">
<path d="M7.47825 0.5985C8.34525 -0.1995 9.65475 -0.1995 10.5217 0.5985L17.2717 6.59325C17.7345 7.01775 18 7.6215 18 8.25V15.75C18 16.9905 16.9905 18 15.75 18H2.25C1.0095 18 0 16.9905 0 15.75V8.4015C0 7.77375 0.2655 7.17 0.72825 6.74475L7.47825 0.5985ZM9 1.50375C8.8185 1.50375 8.63775 1.56975 8.493 1.70325H8.49225L1.74225 7.8495C1.5885 7.9905 1.5 8.19225 1.5 8.4015V15.75C1.5 16.164 1.83675 16.5 2.25 16.5H15.75C16.1632 16.5 16.5 16.164 16.5 15.75V8.25C16.5 8.04075 16.4115 7.839 16.257 7.698L9.50775 1.70325C9.363 1.56975 9.1815 1.50375 9 1.50375ZM9.30848 7.49963C10.0105 7.49963 10.504 7.67288 10.8685 7.93688C10.9772 8.02013 10.996 8.09288 10.942 8.20162L10.6862 8.66738C10.6225 8.77688 10.531 8.82188 10.4215 8.75887C10.0562 8.55787 9.82823 8.45737 9.39997 8.45737C8.61473 8.45737 8.09573 8.93213 7.87673 9.84338H9.61897C9.71873 9.84338 9.76447 9.88912 9.76447 9.99862V10.4366C9.76447 10.5469 9.71873 10.5926 9.61897 10.5926H7.78522C7.77622 10.6924 7.77623 10.8019 7.77623 10.9031V11.2031H9.56423C9.66397 11.2031 9.70973 11.2489 9.70973 11.3584V11.7956C9.70973 11.9059 9.66397 11.9509 9.56423 11.9509H7.87673C8.04922 12.7444 8.49697 13.2641 9.39022 13.2641C9.79148 13.2641 10.1477 13.1546 10.4485 13.0459C10.576 12.9994 10.6495 12.9994 10.6945 13.0999L10.9322 13.6024C10.996 13.7389 10.969 13.8116 10.8595 13.8671C10.4125 14.1034 9.83797 14.2496 9.20798 14.2496C7.83098 14.2496 6.95498 13.3736 6.69098 11.9509H6.09772C5.99722 11.9509 5.95148 11.9059 5.95148 11.7956V11.3584C5.95148 11.2489 5.99722 11.2031 6.09772 11.2031H6.60848V10.9474C6.60848 10.8289 6.60848 10.7111 6.61748 10.5926H6.15248C6.05198 10.5926 6.00698 10.5469 6.00698 10.4366V9.99862C6.00698 9.88912 6.05198 9.84338 6.15248 9.84338H6.71798C7.00973 8.45738 7.87673 7.49963 9.30848 7.49963Z" fill="white"/>
</svg>
