<svg width="21" height="15" viewBox="0 0 21 15" fill="none" xmlns="http://www.w3.org/2000/svg">
<path d="M18.1818 13.0909H2.18182C1.78109 13.0909 1.45455 12.7651 1.45455 12.3636V5.81818H18.9091V12.3636C18.9091 12.7651 18.5825 13.0909 18.1818 13.0909ZM2.18182 1.45455H18.1818C18.5825 1.45455 18.9091 1.78109 18.9091 2.18182V4.36364H1.45455V2.18182C1.45455 1.78109 1.78109 1.45455 2.18182 1.45455ZM18.1818 0H2.18182C0.978909 0 0 0.978909 0 2.18182V12.3636C0 13.5665 0.978909 14.5455 2.18182 14.5455H18.1818C19.3847 14.5455 20.3636 13.5665 20.3636 12.3636V2.18182C20.3636 0.978909 19.3847 0 18.1818 0Z" fill="white"/>
</svg>
